<svg width="266" height="73" viewBox="0 0 266 73" fill="none" xmlns="http://www.w3.org/2000/svg">
<metadata>
Created by potrace 1.10, written by Peter Selinger 2001-2011
</metadata>
<g transform="translate(0.000000,186.000000) scale(0.050000,-0.050000)"
fill="#000000" stroke="none">
<path d="M0 1860 l0 -1860 2660 0 2660 0 0 1860 0 1860 -2660 0 -2660 0 0
-1860z m771 1618 c71 -115 209 -901 209 -1191 0 -210 8 -320 25 -347 20 -32
20 -48 0 -80 -17 -27 -25 -137 -25 -348 0 -304 -44 -569 -192 -1152 -36 -141
-207 773 -208 1106 0 244 -7 329 -31 375 -27 53 -27 65 0 118 54 103 45 1422
-9 1471 -22 20 -40 44 -40 53 0 25 255 21 271 -5z m611 -73 l27 -95 7 95 6 95
109 0 c118 0 131 -14 69 -70 -37 -33 -40 -66 -45 -548 l-5 -512 -90 405 c-100
449 -102 454 -136 289 -40 -194 -33 -364 16 -364 35 0 40 -13 40 -100 0 -87
-5 -100 -40 -100 -49 0 -63 -1537 -16 -1764 52 -251 96 -14 96 514 0 375 4
414 65 689 l65 291 15 -140 c18 -159 18 -125 -1 -600 -13 -337 -158 -1150
-205 -1150 -75 0 -226 1084 -217 1560 23 1145 18 1494 -22 1530 -64 58 -48 70
98 70 l137 0 27 -95z m1470 -15 l23 -100 3 105 2 105 110 0 c119 0 132 -14 70
-70 -38 -34 -40 -63 -41 -538 l-2 -502 -92 396 c-104 449 -128 469 -142 119
-7 -198 -6 -205 35 -205 61 0 63 -178 2 -194 -48 -13 -63 -1654 -17 -1816 l23
-80 27 100 c17 67 27 235 27 510 1 402 133 1253 138 894 1 -53 16 -123 33
-155 27 -53 27 -65 0 -118 -24 -46 -31 -131 -31 -375 -1 -333 -172 -1247 -208
-1106 -160 630 -227 1128 -209 1540 27 612 14 1503 -22 1534 -67 57 -49 68
103 62 l144 -6 24 -100z m1201 0 l23 -100 2 105 2 105 110 0 c123 0 126 -3 70
-75 -38 -48 -40 -76 -35 -547 3 -273 0 -490 -7 -482 -6 8 -49 185 -96 394 -47
208 -88 383 -92 387 -52 52 -78 -2306 -27 -2487 42 -150 63 -6 79 530 13 464
20 531 72 744 61 251 97 329 75 164 -10 -76 -5 -118 19 -165 30 -57 30 -69 3
-122 -24 -45 -31 -129 -31 -365 1 -272 -154 -1189 -193 -1149 -86 85 -237
1154 -223 1573 0 17 4 362 9 768 l8 738 -45 48 -45 48 150 -6 149 -6 23 -100z
m596 10 l20 -90 7 95 6 95 109 0 c118 0 131 -14 69 -70 -38 -34 -40 -63 -42
-538 l-1 -502 -92 396 c-104 449 -128 469 -142 119 -7 -198 -6 -205 35 -205
61 0 63 -178 2 -194 -48 -13 -63 -1654 -17 -1816 l23 -80 27 100 c17 67 27
235 27 510 1 402 133 1253 138 894 1 -53 16 -123 33 -155 27 -53 27 -65 0
-118 -24 -45 -31 -129 -31 -365 1 -279 -154 -1188 -195 -1147 -58 58 -205 906
-205 1184 0 210 -8 320 -25 347 -20 32 -20 48 0 80 48 77 35 1445 -15 1490
-66 60 -47 72 104 66 l145 -6 20 -90z m-2629 -174 c64 -299 66 -300 130 -17
32 139 63 245 70 236 90 -106 220 -1020 219 -1545 -2 -565 -38 -1065 -95
-1290 l-61 -240 -1 1286 c-1 851 -9 1318 -24 1380 -78 339 -97 104 -98 -1236
-2 -1070 -5 -1205 -37 -1340 l-36 -150 -33 144 c-30 126 -34 292 -34 1320 -1
711 -9 1212 -21 1266 -73 328 -87 144 -98 -1330 l-11 -1360 -60 260 c-57 246
-84 650 -88 1290 -3 539 146 1594 219 1549 7 -4 33 -104 59 -223z m1510 -192
c86 -378 90 -411 90 -706 0 -239 7 -324 31 -369 25 -49 26 -67 5 -104 -18 -32
-30 -196 -38 -545 -12 -471 -16 -513 -73 -730 l-61 -230 -2 1320 c-3 1263 -17
1586 -65 1499 -51 -90 -59 -315 -53 -1532 3 -701 2 -1269 -4 -1264 -80 80
-157 823 -159 1527 -1 530 93 1208 213 1540 14 40 13 46 116 -406z"/>
<path d="M720 2055 c1 -972 7 -1267 27 -1345 l27 -100 23 80 c72 252 19 2610
-59 2610 -10 0 -18 -529 -18 -1245z"/>
</g>
</svg>
