<?xml version="1.0" standalone="no"?>
<!DOCTYPE svg PUBLIC "-//W3C//DTD SVG 20010904//EN"
 "http://www.w3.org/TR/2001/REC-SVG-20010904/DTD/svg10.dtd">
<svg version="1.0" xmlns="http://www.w3.org/2000/svg"
 width="266" height="73" viewBox="0 0 266.000000 186.000000"
 preserveAspectRatio="xMidYMid meet">

<g transform="translate(0.000000,186.000000) scale(0.100000,-0.100000)"
fill="#FFFFFF" stroke="none">
<path d="M0 930 l0 -930 1330 0 1330 0 0 930 0 930 -1330 0 -1330 0 0 -930z
m386 809 c3 -6 28 -108 55 -226 47 -207 49 -221 49 -369 0 -106 4 -161 12
-174 10 -16 10 -24 0 -40 -8 -13 -12 -69 -12 -174 0 -147 -2 -164 -45 -353
-25 -109 -48 -209 -51 -223 -5 -18 -21 37 -55 185 -47 204 -49 215 -49 368 0
122 -3 165 -15 187 -14 27 -14 33 0 60 13 24 15 84 15 373 0 331 -1 345 -20
362 -11 10 -20 22 -20 27 0 12 128 10 136 -3z m305 -36 l13 -48 4 48 3 47 55
0 c58 0 65 -7 34 -35 -18 -17 -20 -33 -22 -274 l-3 -256 -45 202 c-25 112 -47
203 -50 203 -11 0 -30 -116 -30 -178 0 -55 2 -62 20 -62 17 0 20 -7 20 -50 0
-43 -3 -50 -20 -50 -20 0 -20 -7 -20 -412 0 -384 8 -528 30 -528 17 0 30 135
30 315 0 188 2 207 33 344 l32 146 8 -70 c8 -80 8 -62 -1 -300 -6 -163 -11
-199 -52 -377 -25 -109 -47 -198 -50 -198 -3 0 -26 87 -50 193 -41 175 -45
208 -52 377 -4 102 -7 196 -7 210 0 14 3 187 5 386 4 352 4 361 -16 379 -11
10 -20 22 -20 27 0 4 31 8 69 8 l69 0 13 -47z m735 -8 l12 -50 1 53 1 52 55 0
c59 0 66 -7 35 -35 -19 -17 -20 -31 -21 -269 l0 -251 -46 198 c-53 225 -64
235 -71 60 -4 -99 -4 -103 17 -103 18 0 21 -6 21 -46 0 -37 -4 -47 -20 -51
-20 -5 -20 -14 -20 -437 0 -294 4 -444 12 -471 l11 -40 13 50 c9 34 14 118 14
255 1 197 2 211 35 350 28 120 34 137 34 97 1 -26 8 -61 16 -77 14 -27 14 -33
0 -60 -12 -22 -15 -65 -15 -187 0 -153 -2 -164 -49 -368 -34 -148 -50 -203
-55 -185 -74 292 -89 377 -97 565 -4 105 -8 197 -8 205 1 8 3 180 5 382 5 360
4 368 -16 385 -11 10 -20 21 -20 26 0 4 32 7 72 5 l72 -3 12 -50z m601 0 l11
-50 1 53 1 52 55 0 c30 0 55 -3 55 -6 0 -3 -9 -17 -20 -31 -19 -24 -20 -39
-18 -274 2 -136 0 -245 -3 -241 -3 4 -25 92 -48 197 -23 104 -44 191 -46 193
-2 2 -8 -13 -14 -35 -15 -54 -15 -1154 0 -1208 11 -39 12 -40 22 -15 6 14 14
140 18 280 7 232 10 266 36 372 31 125 49 164 38 82 -5 -38 -3 -59 9 -82 15
-29 15 -35 1 -62 -12 -22 -15 -64 -15 -182 0 -146 -2 -162 -47 -365 -26 -117
-48 -211 -50 -210 -1 2 -24 93 -50 203 -44 186 -48 211 -54 384 -4 102 -7 192
-7 200 0 8 2 181 4 384 l4 369 -22 24 -22 24 74 -3 75 -3 12 -50z m298 5 l10
-45 3 48 3 47 55 0 c58 0 65 -7 34 -35 -19 -17 -20 -31 -21 -269 l-1 -251 -46
198 c-52 225 -63 235 -70 60 -4 -99 -4 -103 17 -103 18 0 21 -6 21 -46 0 -37
-4 -47 -20 -51 -20 -5 -20 -14 -20 -437 0 -294 4 -444 12 -471 l11 -40 13 50
c9 34 14 118 14 255 1 197 2 211 35 350 28 120 34 137 34 97 1 -26 8 -61 16
-77 14 -27 14 -33 0 -60 -12 -22 -15 -64 -15 -182 0 -146 -2 -162 -47 -365
-26 -117 -49 -211 -51 -209 -2 2 -26 102 -53 221 -47 209 -49 223 -49 371 0
106 -4 161 -12 174 -10 16 -10 24 0 40 9 15 12 109 12 373 0 341 -1 355 -20
372 -33 30 -23 36 52 33 l72 -3 11 -45z m-1315 -87 c13 -59 26 -114 30 -121 4
-7 19 43 35 113 16 69 32 122 35 118 4 -5 26 -93 51 -198 39 -171 44 -208 51
-370 9 -218 9 -178 -1 -480 -8 -230 -11 -260 -39 -370 l-30 -120 -1 643 c-1
602 -4 685 -28 752 -3 9 -11 -6 -19 -35 -11 -39 -14 -177 -14 -645 -1 -535 -3
-603 -19 -670 l-17 -75 -17 72 c-15 63 -17 146 -17 660 0 539 -4 637 -26 693
-5 11 -10 6 -17 -15 -8 -20 -13 -259 -17 -710 l-5 -680 -30 130 c-27 118 -31
153 -37 375 -8 302 -8 260 0 480 6 170 11 201 52 377 24 105 47 190 50 188 4
-2 17 -53 30 -112z m755 -96 c43 -189 45 -206 45 -353 0 -120 3 -162 15 -185
13 -24 13 -33 3 -52 -9 -15 -15 -97 -19 -272 -6 -235 -8 -257 -37 -365 l-30
-115 -1 660 c-1 502 -4 672 -14 710 -7 27 -16 45 -19 40 -25 -46 -29 -158 -26
-767 2 -350 1 -634 -2 -631 -3 2 -18 57 -34 121 -25 105 -29 142 -37 367 -10
302 -10 262 -1 480 7 162 12 198 50 365 47 202 53 220 58 205 2 -5 24 -99 49
-208z"/>
<path d="M360 1028 c0 -486 3 -634 14 -673 l13 -50 11 40 c8 28 12 210 12 601
0 480 -2 572 -16 633 -9 39 -20 71 -25 71 -5 0 -9 -265 -9 -622z"/>
</g>
</svg>
